<?xml version="1.0" encoding="UTF-8" standalone="no"?>
<svg
   xmlns:dc="http://purl.org/dc/elements/1.1/"
   xmlns:cc="http://creativecommons.org/ns#"
   xmlns:rdf="http://www.w3.org/1999/02/22-rdf-syntax-ns#"
   xmlns:svg="http://www.w3.org/2000/svg"
   xmlns="http://www.w3.org/2000/svg"
   xmlns:sodipodi="http://sodipodi.sourceforge.net/DTD/sodipodi-0.dtd"
   xmlns:inkscape="http://www.inkscape.org/namespaces/inkscape"
   sodipodi:docname="bivacco-org.svg"
   inkscape:version="1.0 (4035a4fb49, 2020-05-01)"
   id="svg8"
   version="1.1"
   viewBox="0 0 210 40"
   height="40mm"
   width="210mm">
  <defs
     id="defs2" />
  <sodipodi:namedview
     inkscape:window-maximized="1"
     inkscape:window-y="-9"
     inkscape:window-x="-9"
     inkscape:window-height="1001"
     inkscape:window-width="1920"
     height="45mm"
     units="mm"
     showgrid="false"
     inkscape:document-rotation="0"
     inkscape:current-layer="layer1"
     inkscape:document-units="mm"
     inkscape:cy="476.04496"
     inkscape:cx="196.49457"
     inkscape:zoom="0.49497475"
     inkscape:pageshadow="2"
     inkscape:pageopacity="0.0"
     borderopacity="1.0"
     bordercolor="#666666"
     pagecolor="#ffffff"
     id="base" />
  <metadata
     id="metadata5">
    <rdf:RDF>
      <cc:Work
         rdf:about="">
        <dc:format>image/svg+xml</dc:format>
        <dc:type
           rdf:resource="http://purl.org/dc/dcmitype/StillImage" />
        <dc:title></dc:title>
      </cc:Work>
    </rdf:RDF>
  </metadata>
  <g
     id="layer1"
     inkscape:groupmode="layer"
     inkscape:label="Livello 1">
    <g
       style="font-style:normal;font-weight:normal;font-size:34.6124px;line-height:1.25;font-family:sans-serif;fill:#000000;fill-opacity:1;stroke:none;stroke-width:0.865312"
       id="text835"
       aria-label="Bivacco">
      <path
         id="path869"
         style="font-style:normal;font-variant:normal;font-weight:bold;font-stretch:normal;font-size:34.6124px;font-family:'Maven Pro';-inkscape-font-specification:'Maven Pro, Bold';font-variant-ligatures:normal;font-variant-caps:normal;font-variant-numeric:normal;font-variant-east-asian:normal;stroke-width:0.865312"
         d="M 7.3466058,28.455809 V 5.3693378 h 9.7953092 q 2.526705,0 4.361162,0.6576356 1.86907,0.6230232 2.907442,2.0421316 1.038372,1.384496 1.038372,3.703527 0,1.557558 -0.761473,2.561317 -0.761473,1.00376 -1.834457,1.626783 -1.072984,0.588411 -2.007519,0.934535 l -0.623023,-1.211434 q 1.903682,0.06922 3.32279,0.796085 1.453721,0.692248 2.249806,1.972907 0.830698,1.246046 0.830698,3.011279 0,2.422868 -1.176822,3.980426 -1.142209,1.522945 -3.080504,2.284418 -1.938294,0.726861 -4.291937,0.726861 z m 5.6072092,-4.32655 h 4.707286 q 0.86531,0 1.59217,-0.242287 0.726861,-0.276899 1.176822,-0.899923 0.449961,-0.657635 0.449961,-1.73062 0,-0.796085 -0.276899,-1.315271 -0.276899,-0.519186 -0.761473,-0.796085 -0.449961,-0.311512 -1.038372,-0.449961 -0.588411,-0.13845 -1.246046,-0.13845 h -4.603449 z m 0,-9.691472 h 4.499612 q 0.58841,0 1.107596,-0.207675 0.519186,-0.242287 0.830698,-0.72686 0.346124,-0.484574 0.346124,-1.280659 0,-1.419108 -0.761473,-1.938294 -0.761473,-0.5537988 -1.869069,-0.5537988 h -4.153488 z" />
      <path
         id="path871"
         style="font-style:normal;font-variant:normal;font-weight:bold;font-stretch:normal;font-size:34.6124px;font-family:'Maven Pro';-inkscape-font-specification:'Maven Pro, Bold';font-variant-ligatures:normal;font-variant-caps:normal;font-variant-numeric:normal;font-variant-east-asian:normal;stroke-width:0.865312"
         d="M 30.532588,28.455809 V 11.184221 h 5.157248 l 0.03461,17.271588 z M 30.428751,8.5536786 v -3.980426 h 5.330309 v 3.980426 z" />
      <path
         id="path873"
         style="font-style:normal;font-variant:normal;font-weight:bold;font-stretch:normal;font-size:34.6124px;font-family:'Maven Pro';-inkscape-font-specification:'Maven Pro, Bold';font-variant-ligatures:normal;font-variant-caps:normal;font-variant-numeric:normal;font-variant-east-asian:normal;stroke-width:0.865312"
         d="M 46.148188,28.455809 38.844972,10.941934 h 5.607209 l 5.295697,13.498836 -1.246047,0.03461 4.707287,-13.533449 h 5.434147 l -7.303217,17.513875 z" />
      <path
         id="path875"
         style="font-style:normal;font-variant:normal;font-weight:bold;font-stretch:normal;font-size:34.6124px;font-family:'Maven Pro';-inkscape-font-specification:'Maven Pro, Bold';font-variant-ligatures:normal;font-variant-caps:normal;font-variant-numeric:normal;font-variant-east-asian:normal;stroke-width:0.865312"
         d="m 67.869632,28.974995 q -1.59217,0 -3.011279,-0.311512 -1.384496,-0.276899 -2.45748,-0.934535 -1.038372,-0.692248 -1.626783,-1.834457 -0.588411,-1.176822 -0.588411,-2.907442 0,-1.626782 0.657636,-2.838216 0.692248,-1.211434 2.076744,-1.86907 1.384496,-0.657636 3.495852,-0.657636 1.176822,0 2.284419,0.242287 1.107597,0.242287 1.972907,0.657636 0.899922,0.415349 1.419108,0.899922 l 0.207675,2.492093 q -0.692249,-0.415349 -1.661396,-0.657636 -0.969147,-0.242286 -2.076744,-0.242286 -1.696007,0 -2.492093,0.519186 -0.761472,0.484573 -0.761472,1.557558 0,0.657635 0.380736,1.176821 0.380736,0.519186 1.00376,0.796085 0.657635,0.2769 1.349883,0.2769 1.765233,0 2.457481,-0.242287 0.72686,-0.242287 0.72686,-0.969147 v -6.437907 q 0,-1.59217 -1.038372,-2.284418 -1.00376,-0.726861 -2.872829,-0.726861 -1.522946,0 -3.080504,0.553799 -1.522945,0.519186 -2.492093,1.280659 v -4.568837 q 0.899923,-0.553799 2.768992,-1.038372 1.903682,-0.484574 4.257326,-0.484574 0.830697,0 1.834457,0.13845 1.003759,0.138449 2.007519,0.519186 1.00376,0.346124 1.834457,1.038372 0.86531,0.692248 1.384496,1.765232 0.519186,1.072985 0.519186,2.665155 l -0.03461,8.272364 q 0,1.488333 -1.00376,2.422868 -1.003759,0.899922 -2.907441,1.315271 -1.86907,0.415349 -4.534225,0.415349 z" />
      <path
         id="path877"
         style="font-style:normal;font-variant:normal;font-weight:bold;font-stretch:normal;font-size:34.6124px;font-family:'Maven Pro';-inkscape-font-specification:'Maven Pro, Bold';font-variant-ligatures:normal;font-variant-caps:normal;font-variant-numeric:normal;font-variant-east-asian:normal;stroke-width:0.865312"
         d="m 89.130841,28.90577 q -1.86907,0 -3.530465,-0.553799 -1.661395,-0.553798 -2.942054,-1.661395 -1.280659,-1.107597 -2.007519,-2.803604 -0.726861,-1.696008 -0.726861,-3.945814 0,-2.388255 0.692248,-4.153488 0.692248,-1.799845 1.903682,-2.976666 1.246047,-1.176822 2.907442,-1.765233 1.661395,-0.58841 3.668914,-0.58841 1.419109,0 2.907442,0.311511 1.522945,0.276899 2.665155,0.796085 v 4.430388 q -1.211434,-0.553799 -2.388256,-0.899923 -1.142209,-0.380736 -2.353643,-0.380736 -2.180581,0 -3.530465,1.107597 -1.315271,1.072984 -1.315271,3.530464 0,2.59593 1.176821,3.911202 1.176822,1.315271 3.911202,1.315271 1.280658,0 2.45748,-0.449961 1.211434,-0.449962 2.076744,-0.934535 v 4.395775 q -1.211434,0.623023 -2.526705,0.969147 -1.315271,0.346124 -3.045891,0.346124 z" />
      <path
         id="path879"
         style="font-style:normal;font-variant:normal;font-weight:bold;font-stretch:normal;font-size:34.6124px;font-family:'Maven Pro';-inkscape-font-specification:'Maven Pro, Bold';font-variant-ligatures:normal;font-variant-caps:normal;font-variant-numeric:normal;font-variant-east-asian:normal;stroke-width:0.865312"
         d="m 106.50464,28.90577 q -1.86907,0 -3.53046,-0.553799 -1.6614,-0.553798 -2.94206,-1.661395 -1.280655,-1.107597 -2.007515,-2.803604 -0.726861,-1.696008 -0.726861,-3.945814 0,-2.388255 0.692248,-4.153488 0.692248,-1.799845 1.903682,-2.976666 1.246046,-1.176822 2.907446,-1.765233 1.66139,-0.58841 3.66891,-0.58841 1.41911,0 2.90744,0.311511 1.52295,0.276899 2.66516,0.796085 v 4.430388 q -1.21144,-0.553799 -2.38826,-0.899923 -1.14221,-0.380736 -2.35364,-0.380736 -2.18058,0 -3.53047,1.107597 -1.31527,1.072984 -1.31527,3.530464 0,2.59593 1.17682,3.911202 1.17683,1.315271 3.9112,1.315271 1.28066,0 2.45749,-0.449961 1.21143,-0.449962 2.07674,-0.934535 v 4.395775 q -1.21143,0.623023 -2.52671,0.969147 -1.31527,0.346124 -3.04589,0.346124 z" />
      <path
         id="path881"
         style="font-style:normal;font-variant:normal;font-weight:bold;font-stretch:normal;font-size:34.6124px;font-family:'Maven Pro';-inkscape-font-specification:'Maven Pro, Bold';font-variant-ligatures:normal;font-variant-caps:normal;font-variant-numeric:normal;font-variant-east-asian:normal;stroke-width:0.865312"
         d="m 123.56693,28.974995 q -4.43038,0 -6.68019,-2.353644 -2.21519,-2.388255 -2.21519,-6.991704 0,-4.949574 2.2498,-7.095542 2.28442,-2.180582 6.64558,-2.180582 2.94206,0 4.91496,1.00376 2.00752,0.969147 3.01128,3.011279 1.03837,2.042131 1.03837,5.261085 0,4.603449 -2.31903,6.991704 -2.31903,2.353644 -6.64558,2.353644 z m 0,-4.118876 q 1.28066,0 2.11136,-0.588411 0.86531,-0.623023 1.28066,-1.765232 0.44996,-1.176822 0.44996,-2.872829 0,-1.938295 -0.44996,-3.045892 -0.41535,-1.142209 -1.28066,-1.626782 -0.86531,-0.519186 -2.11136,-0.519186 -1.31527,0 -2.14597,0.519186 -0.83069,0.519186 -1.24604,1.661395 -0.38074,1.107597 -0.38074,3.011279 0,2.630542 0.89992,3.945813 0.93454,1.280659 2.87283,1.280659 z" />
    </g>
    <g
       style="font-style:normal;font-weight:normal;font-size:34.6124px;line-height:1.25;font-family:sans-serif;fill:#000000;fill-opacity:1;stroke:none;stroke-width:0.865312"
       id="text835-2"
       aria-label="org">
      <path
         id="path884"
         style="font-style:normal;font-variant:normal;font-weight:bold;font-stretch:normal;font-size:34.6124px;font-family:'Maven Pro';-inkscape-font-specification:'Maven Pro, Bold';font-variant-ligatures:normal;font-variant-caps:normal;font-variant-numeric:normal;font-variant-east-asian:normal;stroke-width:0.865312"
         d="m 159.39106,29.094889 q -4.43039,0 -6.6802,-2.353644 -2.21519,-2.388255 -2.21519,-6.991704 0,-4.949574 2.24981,-7.095542 2.28441,-2.180582 6.64558,-2.180582 2.94205,0 4.91496,1.00376 2.00752,0.969147 3.01128,3.011279 1.03837,2.042131 1.03837,5.261085 0,4.603449 -2.31903,6.991704 -2.31903,2.353644 -6.64558,2.353644 z m 0,-4.118876 q 1.28066,0 2.11135,-0.588411 0.86531,-0.623023 1.28066,-1.765232 0.44996,-1.176822 0.44996,-2.872829 0,-1.938295 -0.44996,-3.045892 -0.41535,-1.142209 -1.28066,-1.626782 -0.86531,-0.519186 -2.11135,-0.519186 -1.31527,0 -2.14597,0.519186 -0.8307,0.519186 -1.24605,1.661395 -0.38073,1.107597 -0.38073,3.011279 0,2.630542 0.89992,3.945813 0.93453,1.280659 2.87283,1.280659 z" />
      <path
         id="path886"
         style="font-style:normal;font-variant:normal;font-weight:bold;font-stretch:normal;font-size:34.6124px;font-family:'Maven Pro';-inkscape-font-specification:'Maven Pro, Bold';font-variant-ligatures:normal;font-variant-caps:normal;font-variant-numeric:normal;font-variant-east-asian:normal;stroke-width:0.865312"
         d="M 171.91534,28.575703 V 12.896285 q 0.48457,-0.415348 1.73062,-0.934534 1.24604,-0.553799 2.83821,-0.969148 1.62679,-0.449961 3.25357,-0.449961 1.62678,0 2.56132,0.242287 0.93453,0.242287 1.41911,0.623023 v 3.772752 q -0.58842,-0.13845 -1.48834,-0.207675 -0.89992,-0.06922 -1.86907,-0.06922 -0.96914,-0.03461 -1.83445,0 -0.86531,0.03461 -1.45373,0.138449 v 13.533449 z" />
      <path
         id="path888"
         style="font-style:normal;font-variant:normal;font-weight:bold;font-stretch:normal;font-size:34.6124px;font-family:'Maven Pro';-inkscape-font-specification:'Maven Pro, Bold';font-variant-ligatures:normal;font-variant-caps:normal;font-variant-numeric:normal;font-variant-east-asian:normal;stroke-width:0.865312"
         d="m 193.43506,29.094889 q -2.38826,-0.13845 -4.11888,-1.107597 -1.69601,-0.969147 -2.66515,-2.838217 -0.93454,-1.903682 -0.93454,-4.776511 0,-2.907442 0.72686,-4.811124 0.72686,-1.938294 2.00752,-3.011279 1.31527,-1.072984 3.14973,-1.522945 1.83446,-0.449961 4.08426,-0.449961 2.18058,0 3.80737,0.553798 1.62678,0.553798 2.5267,1.59217 0.89992,1.038372 0.89992,2.561318 v 13.498836 q 0,1.834457 -0.58841,3.218953 -0.58841,1.419109 -1.76523,2.353643 -1.14221,0.969148 -2.8036,1.453721 -1.62679,0.484574 -3.77275,0.484574 -2.31904,0 -3.98043,-0.346124 -1.62678,-0.311512 -2.49209,-0.796085 v -4.534225 q 0.51918,0.207675 1.52294,0.553799 1.00376,0.346124 2.24981,0.553798 1.24604,0.242287 2.49209,0.242287 1.62678,0 2.49209,-0.449961 0.89993,-0.449962 1.24605,-1.211434 0.34612,-0.761473 0.34612,-1.73062 v -2.838217 l 1.00376,0.72686 q -0.55379,0.796085 -1.31527,1.384496 -0.76147,0.588411 -1.79984,0.899923 -1.00376,0.346124 -2.31903,0.346124 z m 1.31527,-3.876589 q 0.89992,0 1.66139,-0.173062 0.76148,-0.207675 1.45372,-0.588411 V 16.42675 q 0,-0.72686 -0.41534,-1.107597 -0.41535,-0.380736 -1.03838,-0.519186 -0.62302,-0.138449 -1.31527,-0.138449 -1.59217,0 -2.5267,0.692248 -0.89993,0.692248 -1.31527,1.938294 -0.38074,1.211434 -0.38074,2.768992 0,2.388256 1.07298,3.772752 1.07299,1.384496 2.80361,1.384496 z" />
    </g>
    <circle
       r="3.0640562"
       cy="23.596733"
       cx="141.51361"
       id="path855"
       style="fill:#f26522;fill-opacity:1;stroke:#f26522;stroke-width:4.16884;stroke-opacity:1" />
  </g>
</svg>
